<?xml version="1.0" encoding="UTF-8" standalone="no"?>
<svg
   xmlns:dc="http://purl.org/dc/elements/1.1/"
   xmlns:cc="http://creativecommons.org/ns#"
   xmlns:rdf="http://www.w3.org/1999/02/22-rdf-syntax-ns#"
   xmlns:svg="http://www.w3.org/2000/svg"
   xmlns="http://www.w3.org/2000/svg"
   xmlns:sodipodi="http://sodipodi.sourceforge.net/DTD/sodipodi-0.dtd"
   xmlns:inkscape="http://www.inkscape.org/namespaces/inkscape"
   aria-hidden="true"
   focusable="false"
   data-prefix="fas"
   data-icon="code"
   class="svg-inline--fa fa-code"
   role="img"
   viewBox="0 0 640 512"
   version="1.1"
   id="svg4"
   sodipodi:docname="code-solid.svg"
   inkscape:version="1.0.1 (3bc2e813f5, 2020-09-07)"
   inkscape:export-filename="C:\Users\au646069\github\systole\source\images\code-solid.png"
   inkscape:export-xdpi="63.75"
   inkscape:export-ydpi="63.75">
  <metadata
     id="metadata10">
    <rdf:RDF>
      <cc:Work
         rdf:about="">
        <dc:format>image/svg+xml</dc:format>
        <dc:type
           rdf:resource="http://purl.org/dc/dcmitype/StillImage" />
      </cc:Work>
    </rdf:RDF>
  </metadata>
  <defs
     id="defs8" />
  <sodipodi:namedview
     pagecolor="#ffffff"
     bordercolor="#666666"
     borderopacity="1"
     objecttolerance="10"
     gridtolerance="10"
     guidetolerance="10"
     inkscape:pageopacity="0"
     inkscape:pageshadow="2"
     inkscape:window-width="2560"
     inkscape:window-height="1361"
     id="namedview6"
     showgrid="false"
     inkscape:zoom="1.9265625"
     inkscape:cx="320"
     inkscape:cy="256"
     inkscape:window-x="-9"
     inkscape:window-y="-9"
     inkscape:window-maximized="1"
     inkscape:current-layer="svg4" />
  <path
     fill="currentColor"
     d="M416 31.94C416 21.75 408.1 0 384.1 0c-13.98 0-26.87 9.072-30.89 23.18l-128 448c-.8404 2.935-1.241 5.892-1.241 8.801C223.1 490.3 232 512 256 512c13.92 0 26.73-9.157 30.75-23.22l128-448C415.6 37.81 416 34.85 416 31.94zM176 143.1c0-18.28-14.95-32-32-32c-8.188 0-16.38 3.125-22.62 9.376l-112 112C3.125 239.6 0 247.8 0 255.1S3.125 272.4 9.375 278.6l112 112C127.6 396.9 135.8 399.1 144 399.1c17.05 0 32-13.73 32-32c0-8.188-3.125-16.38-9.375-22.63L77.25 255.1l89.38-89.38C172.9 160.3 176 152.2 176 143.1zM640 255.1c0-8.188-3.125-16.38-9.375-22.63l-112-112C512.4 115.1 504.2 111.1 496 111.1c-17.05 0-32 13.73-32 32c0 8.188 3.125 16.38 9.375 22.63l89.38 89.38l-89.38 89.38C467.1 351.6 464 359.8 464 367.1c0 18.28 14.95 32 32 32c8.188 0 16.38-3.125 22.62-9.376l112-112C636.9 272.4 640 264.2 640 255.1z"
     id="path2"
     style="fill:#2c5aa0" />
</svg>
