<?xml version="1.0" encoding="UTF-8" standalone="no"?>
<!-- Created with Inkscape (http://www.inkscape.org/) -->

<svg
   xmlns:dc="http://purl.org/dc/elements/1.1/"
   xmlns:cc="http://creativecommons.org/ns#"
   xmlns:rdf="http://www.w3.org/1999/02/22-rdf-syntax-ns#"
   xmlns:svg="http://www.w3.org/2000/svg"
   xmlns="http://www.w3.org/2000/svg"
   xmlns:sodipodi="http://sodipodi.sourceforge.net/DTD/sodipodi-0.dtd"
   xmlns:inkscape="http://www.inkscape.org/namespaces/inkscape"
   width="205.57864mm"
   height="53.397957mm"
   viewBox="0 0 205.57864 53.397956"
   version="1.1"
   id="svg8"
   inkscape:version="0.92.4 (5da689c313, 2019-01-14)"
   sodipodi:docname="logo.svg"
   inkscape:export-filename="C:\Users\au646069\github\systole\Images\logo.png"
   inkscape:export-xdpi="600"
   inkscape:export-ydpi="600">
  <defs
     id="defs2" />
  <sodipodi:namedview
     id="base"
     pagecolor="#ffffff"
     bordercolor="#666666"
     borderopacity="1.0"
     inkscape:pageopacity="0.0"
     inkscape:pageshadow="2"
     inkscape:zoom="1.4"
     inkscape:cx="444.11372"
     inkscape:cy="94.844197"
     inkscape:document-units="mm"
     inkscape:current-layer="layer1"
     showgrid="false"
     fit-margin-top="0"
     fit-margin-left="0"
     fit-margin-right="0"
     fit-margin-bottom="0"
     inkscape:window-width="2560"
     inkscape:window-height="1346"
     inkscape:window-x="-11"
     inkscape:window-y="-11"
     inkscape:window-maximized="1"
     showguides="true"
     inkscape:guide-bbox="true">
    <inkscape:grid
       type="xygrid"
       id="grid823"
       originx="0.14174648"
       originy="2.7842313" />
  </sodipodi:namedview>
  <metadata
     id="metadata5">
    <rdf:RDF>
      <cc:Work
         rdf:about="">
        <dc:format>image/svg+xml</dc:format>
        <dc:type
           rdf:resource="http://purl.org/dc/dcmitype/StillImage" />
        <dc:title />
      </cc:Work>
    </rdf:RDF>
  </metadata>
  <g
     inkscape:label="Layer 1"
     inkscape:groupmode="layer"
     id="layer1"
     transform="translate(-11.360922,-10.419877)">
    <g
       id="g863"
       transform="matrix(0.84915084,0,0,0.84915084,17.31151,5.717876)">
      <path
         inkscape:connector-curvature="0"
         id="path1227"
         style="font-style:normal;font-variant:normal;font-weight:800;font-stretch:normal;font-size:85.33473969px;line-height:1.25;font-family:Montserrat;-inkscape-font-specification:'Montserrat, Ultra-Bold';font-variant-ligatures:normal;font-variant-caps:normal;font-variant-numeric:normal;font-feature-settings:normal;text-align:start;letter-spacing:0px;word-spacing:0px;writing-mode:lr-tb;text-anchor:start;fill:#214478;fill-opacity:1;stroke:#2d5ba1;stroke-width:2;stroke-miterlimit:4;stroke-dasharray:none;stroke-opacity:1"
         d="M 69.963166,22.602933 62.825064,40.235119 55.740225,22.602933 H 45.352684 l 12.35851,29.244922 c -0.852308,1.704627 -1.970969,2.450396 -3.941938,2.450396 -1.598083,0 -3.302705,-0.63923 -4.474633,-1.704622 l -3.515783,7.084836 c 1.9177,1.598082 5.326944,2.610201 8.363302,2.610201 5.69983,0 9.961386,-2.184044 12.997744,-9.641764 l 12.46505,-30.043969 z" />
      <path
         inkscape:connector-curvature="0"
         id="path1229"
         style="font-style:normal;font-variant:normal;font-weight:800;font-stretch:normal;font-size:85.33473969px;line-height:1.25;font-family:Montserrat;-inkscape-font-specification:'Montserrat, Ultra-Bold';font-variant-ligatures:normal;font-variant-caps:normal;font-variant-numeric:normal;font-feature-settings:normal;text-align:start;letter-spacing:0px;word-spacing:0px;writing-mode:lr-tb;text-anchor:start;fill:#214478;fill-opacity:1;stroke:#2d5ba1;stroke-width:2;stroke-miterlimit:4;stroke-dasharray:none;stroke-opacity:1"
         d="m 92.143229,51.954394 c 9.375431,0 14.276211,-4.155017 14.276211,-9.481958 0,-11.452931 -16.992952,-7.138106 -16.992952,-11.133314 0,-1.065389 1.225198,-2.024239 4.63444,-2.024239 2.556935,0 5.433485,0.532695 8.310032,2.130778 l 3.03636,-6.871758 c -2.87654,-1.598084 -7.351181,-2.450394 -11.399658,-2.450394 -9.055808,0 -14.063132,4.155016 -14.063132,9.588499 0,11.559469 17.046217,7.138106 17.046217,11.026775 0,1.225197 -1.118658,1.970969 -4.527901,1.970969 -3.515781,0 -7.404453,-1.012119 -10.067927,-2.663472 l -3.036358,6.925029 c 2.823286,1.757887 7.883883,2.983085 12.784668,2.983085 z" />
      <path
         inkscape:connector-curvature="0"
         id="path1231"
         style="font-style:normal;font-variant:normal;font-weight:800;font-stretch:normal;font-size:85.33473969px;line-height:1.25;font-family:Montserrat;-inkscape-font-specification:'Montserrat, Ultra-Bold';font-variant-ligatures:normal;font-variant-caps:normal;font-variant-numeric:normal;font-feature-settings:normal;text-align:start;letter-spacing:0px;word-spacing:0px;writing-mode:lr-tb;text-anchor:start;fill:#214478;fill-opacity:1;stroke:#2d5ba1;stroke-width:2;stroke-miterlimit:4;stroke-dasharray:none;stroke-opacity:1"
         d="m 128.19998,43.218208 c -0.8523,0.585964 -1.97096,0.90558 -3.08962,0.90558 -1.81116,0 -3.03636,-1.171927 -3.03636,-3.302705 v -9.5885 h 6.60541 V 23.668322 H 122.074 v -7.510991 h -10.12119 v 7.510991 h -4.20829 v 7.564261 h 4.20829 v 9.695039 c 0,7.404451 4.31482,11.026772 11.71927,11.026772 2.66348,0 5.27368,-0.53269 7.03157,-1.651348 z" />
      <path
         inkscape:connector-curvature="0"
         id="path1233"
         style="font-style:normal;font-variant:normal;font-weight:800;font-stretch:normal;font-size:85.33473969px;line-height:1.25;font-family:Montserrat;-inkscape-font-specification:'Montserrat, Ultra-Bold';font-variant-ligatures:normal;font-variant-caps:normal;font-variant-numeric:normal;font-feature-settings:normal;text-align:start;letter-spacing:0px;word-spacing:0px;writing-mode:lr-tb;text-anchor:start;fill:#214478;fill-opacity:1;stroke:#2d5ba1;stroke-width:2;stroke-miterlimit:4;stroke-dasharray:none;stroke-opacity:1"
         d="m 169.25242,51.474971 h 10.12119 V 11.949044 h -10.12119 z" />
      <path
         inkscape:connector-curvature="0"
         id="path1235"
         style="font-style:normal;font-variant:normal;font-weight:800;font-stretch:normal;font-size:85.33473969px;line-height:1.25;font-family:Montserrat;-inkscape-font-specification:'Montserrat, Ultra-Bold';font-variant-ligatures:normal;font-variant-caps:normal;font-variant-numeric:normal;font-feature-settings:normal;text-align:start;letter-spacing:0px;word-spacing:0px;writing-mode:lr-tb;text-anchor:start;fill:#214478;fill-opacity:1;stroke:#2d5ba1;stroke-width:2;stroke-miterlimit:4;stroke-dasharray:none;stroke-opacity:1"
         d="m 215.41039,37.092222 c 0,-9.535231 -6.92503,-14.968713 -15.44814,-14.968713 -9.10907,0 -15.8743,6.179254 -15.8743,14.862174 0,8.62965 6.65869,14.968711 16.93969,14.968711 5.48675,0 9.53523,-1.598082 12.30524,-4.687708 l -5.32695,-5.540022 c -1.97096,1.704622 -3.8354,2.503663 -6.65868,2.503663 -3.72886,0 -6.23253,-1.704622 -7.08483,-4.634441 h 20.98816 c 0.0533,-0.799042 0.15981,-1.757892 0.15981,-2.503664 z m -15.39487,-7.777339 c 3.14289,0 5.38021,1.9177 5.91291,4.954058 h -11.82582 c 0.58596,-3.036358 2.77001,-4.954058 5.91291,-4.954058 z" />
      <path
         inkscape:connector-curvature="0"
         id="path1225"
         style="font-style:normal;font-variant:normal;font-weight:800;font-stretch:normal;font-size:85.33473969px;line-height:1.25;font-family:Montserrat;-inkscape-font-specification:'Montserrat, Ultra-Bold';font-variant-ligatures:normal;font-variant-caps:normal;font-variant-numeric:normal;font-feature-settings:normal;text-align:start;letter-spacing:0px;word-spacing:0px;writing-mode:lr-tb;text-anchor:start;fill:#214478;fill-opacity:1;stroke:#2d5ba1;stroke-width:2;stroke-miterlimit:4;stroke-dasharray:none;stroke-opacity:1"
         d="m 28.854139,52.220745 c 11.080044,0 16.513527,-5.540023 16.513527,-12.038896 0,-13.743516 -21.147969,-9.48196 -21.147969,-15.18179 0,-1.864431 1.598083,-3.355976 6.019448,-3.355976 3.249436,0 6.765219,0.95885 10.334271,2.87655 l 3.249436,-7.830608 c -3.675591,-2.130777 -8.682919,-3.249436 -13.530438,-3.249436 -11.080045,0 -16.513528,5.433484 -16.513528,12.092164 0,13.850055 21.201239,9.53523 21.201239,15.448138 0,1.811162 -1.704622,3.036359 -6.072717,3.036359 -4.314825,0 -9.002536,-1.491545 -12.305241,-3.675592 l -3.462514,7.777337 c 3.515783,2.450396 9.5885,4.10175 15.714486,4.10175 z" />
      <path
         d="m 28.324972,51.691578 c 11.080044,0 16.513527,-5.540023 16.513527,-12.038896 0,-13.743516 -21.147969,-9.48196 -21.147969,-15.18179 0,-1.864431 1.598083,-3.355976 6.019448,-3.355976 3.249436,0 6.765219,0.95885 10.334271,2.87655 l 3.249436,-7.830608 c -3.675591,-2.130777 -8.682919,-3.249436 -13.530438,-3.249436 -11.080045,0 -16.513528,5.433484 -16.513528,12.092164 0,13.850055 21.201239,9.53523 21.201239,15.448138 0,1.811162 -1.704622,3.036359 -6.072717,3.036359 -4.314825,0 -9.002536,-1.491545 -12.305241,-3.675592 l -3.462514,7.777337 c 3.515783,2.450396 9.5885,4.10175 15.714486,4.10175 z"
         style="font-style:normal;font-variant:normal;font-weight:800;font-stretch:normal;font-size:85.33473969px;line-height:1.25;font-family:Montserrat;-inkscape-font-specification:'Montserrat, Ultra-Bold';font-variant-ligatures:normal;font-variant-caps:normal;font-variant-numeric:normal;font-feature-settings:normal;text-align:start;letter-spacing:0px;word-spacing:0px;writing-mode:lr-tb;text-anchor:start;fill:#ffffff;fill-opacity:1;stroke:#2d5ba1;stroke-width:1.5;stroke-miterlimit:4;stroke-dasharray:none;stroke-opacity:1"
         id="path989"
         inkscape:connector-curvature="0" />
      <path
         d="M 69.433999,22.073766 62.295897,39.705952 55.211058,22.073766 H 44.823517 l 12.35851,29.244922 c -0.852308,1.704627 -1.970969,2.450396 -3.941938,2.450396 -1.598083,0 -3.302705,-0.63923 -4.474633,-1.704622 l -3.515783,7.084836 c 1.9177,1.598082 5.326944,2.610201 8.363302,2.610201 5.69983,0 9.961386,-2.184044 12.997744,-9.641764 l 12.46505,-30.043969 z"
         style="font-style:normal;font-variant:normal;font-weight:800;font-stretch:normal;font-size:85.33473969px;line-height:1.25;font-family:Montserrat;-inkscape-font-specification:'Montserrat, Ultra-Bold';font-variant-ligatures:normal;font-variant-caps:normal;font-variant-numeric:normal;font-feature-settings:normal;text-align:start;letter-spacing:0px;word-spacing:0px;writing-mode:lr-tb;text-anchor:start;fill:#ffffff;fill-opacity:1;stroke:#2d5ba1;stroke-width:1.5;stroke-miterlimit:4;stroke-dasharray:none;stroke-opacity:1"
         id="path991"
         inkscape:connector-curvature="0" />
      <path
         d="m 91.614062,51.425227 c 9.375428,0 14.276208,-4.155017 14.276208,-9.481958 0,-11.452931 -16.992949,-7.138106 -16.992949,-11.133314 0,-1.065389 1.225198,-2.024239 4.63444,-2.024239 2.556935,0 5.433488,0.532695 8.310029,2.130778 l 3.03636,-6.871758 c -2.87654,-1.598084 -7.351178,-2.450394 -11.399655,-2.450394 -9.055808,0 -14.063132,4.155016 -14.063132,9.588499 0,11.559469 17.046217,7.138106 17.046217,11.026775 0,1.225197 -1.118658,1.970969 -4.527901,1.970969 -3.515781,0 -7.404453,-1.012119 -10.067927,-2.663472 l -3.036358,6.925029 c 2.823286,1.757887 7.883883,2.983085 12.784668,2.983085 z"
         style="font-style:normal;font-variant:normal;font-weight:800;font-stretch:normal;font-size:85.33473969px;line-height:1.25;font-family:Montserrat;-inkscape-font-specification:'Montserrat, Ultra-Bold';font-variant-ligatures:normal;font-variant-caps:normal;font-variant-numeric:normal;font-feature-settings:normal;text-align:start;letter-spacing:0px;word-spacing:0px;writing-mode:lr-tb;text-anchor:start;fill:#ffffff;fill-opacity:1;stroke:#2d5ba1;stroke-width:1.5;stroke-miterlimit:4;stroke-dasharray:none;stroke-opacity:1"
         id="path993"
         inkscape:connector-curvature="0" />
      <path
         d="m 127.67081,42.689041 c -0.8523,0.585964 -1.97096,0.90558 -3.08962,0.90558 -1.81116,0 -3.03636,-1.171927 -3.03636,-3.302705 v -9.5885 h 6.60541 v -7.564261 h -6.60541 v -7.510991 h -10.12119 v 7.510991 h -4.20829 v 7.564261 h 4.20829 v 9.695039 c 0,7.404451 4.31482,11.026772 11.71927,11.026772 2.66348,0 5.27368,-0.53269 7.03157,-1.651348 z"
         style="font-style:normal;font-variant:normal;font-weight:800;font-stretch:normal;font-size:85.33473969px;line-height:1.25;font-family:Montserrat;-inkscape-font-specification:'Montserrat, Ultra-Bold';font-variant-ligatures:normal;font-variant-caps:normal;font-variant-numeric:normal;font-feature-settings:normal;text-align:start;letter-spacing:0px;word-spacing:0px;writing-mode:lr-tb;text-anchor:start;fill:#ffffff;fill-opacity:1;stroke:#2d5ba1;stroke-width:1.5;stroke-miterlimit:4;stroke-dasharray:none;stroke-opacity:1"
         id="path995"
         inkscape:connector-curvature="0" />
      <path
         d="m 168.72325,50.945804 h 10.12119 V 11.419877 h -10.12119 z"
         style="font-style:normal;font-variant:normal;font-weight:800;font-stretch:normal;font-size:85.33473969px;line-height:1.25;font-family:Montserrat;-inkscape-font-specification:'Montserrat, Ultra-Bold';font-variant-ligatures:normal;font-variant-caps:normal;font-variant-numeric:normal;font-feature-settings:normal;text-align:start;letter-spacing:0px;word-spacing:0px;writing-mode:lr-tb;text-anchor:start;fill:#ffffff;fill-opacity:1;stroke:#2d5ba1;stroke-width:1.5;stroke-miterlimit:4;stroke-dasharray:none;stroke-opacity:1"
         id="path999"
         inkscape:connector-curvature="0" />
      <path
         d="m 214.88122,36.563055 c 0,-9.535231 -6.92503,-14.968713 -15.44814,-14.968713 -9.10907,0 -15.8743,6.179254 -15.8743,14.862174 0,8.62965 6.65869,14.968711 16.93969,14.968711 5.48675,0 9.53523,-1.598082 12.30524,-4.687708 l -5.32695,-5.540022 c -1.97096,1.704622 -3.8354,2.503663 -6.65868,2.503663 -3.72886,0 -6.23253,-1.704622 -7.08483,-4.634441 h 20.98816 c 0.0533,-0.799042 0.15981,-1.757892 0.15981,-2.503664 z m -15.39487,-7.777339 c 3.14289,0 5.38021,1.9177 5.91291,4.954058 h -11.82582 c 0.58596,-3.036358 2.77001,-4.954058 5.91291,-4.954058 z"
         style="font-style:normal;font-variant:normal;font-weight:800;font-stretch:normal;font-size:85.33473969px;line-height:1.25;font-family:Montserrat;-inkscape-font-specification:'Montserrat, Ultra-Bold';font-variant-ligatures:normal;font-variant-caps:normal;font-variant-numeric:normal;font-feature-settings:normal;text-align:start;letter-spacing:0px;word-spacing:0px;writing-mode:lr-tb;text-anchor:start;fill:#ffffff;fill-opacity:1;stroke:#2d5ba1;stroke-width:1.5;stroke-miterlimit:4;stroke-dasharray:none;stroke-opacity:1"
         id="path1001"
         inkscape:connector-curvature="0" />
      <g
         transform="translate(-0.06914098)"
         id="g850">
        <circle
           style="opacity:1;fill:#ffffff;fill-opacity:1;stroke:#ffffff;stroke-width:4.86957836;stroke-linejoin:round;stroke-miterlimit:4;stroke-dasharray:none;stroke-dashoffset:0;stroke-opacity:1"
           id="path1218-5-0"
           cx="149.5289"
           cy="38.888191"
           r="14.724678" />
        <path
           style="opacity:1;fill:#de8787;fill-opacity:1;stroke:none;stroke-width:0.5;stroke-linejoin:round;stroke-miterlimit:4;stroke-dasharray:none;stroke-dashoffset:0;stroke-opacity:0.39215686"
           d="m 148.11363,20.742515 c -8.97897,0.23299 -16.14038,7.57613 -16.14339,16.55813 -5.8e-4,1.46265 0.19701,2.91866 0.58085,4.33004 h 7.07039 l 2.34146,-2.34034 4.09985,4.09984 z"
           id="path837-0"
           inkscape:connector-curvature="0"
           sodipodi:nodetypes="csccccc" />
        <path
           style="opacity:1;fill:#2d5ba1;fill-opacity:1;stroke:none;stroke-width:0.5;stroke-linejoin:round;stroke-miterlimit:4;stroke-dasharray:none;stroke-dashoffset:0;stroke-opacity:1"
           d="m 149.52195,23.985835 -2.0436,22.57752 -5.00759,-5.00718 -2.19278,2.1912 h -7.65031 c 2.34837,7.35195 9.17639,12.34544 16.89428,12.35517 7.72329,-0.003 14.55887,-4.99809 16.90888,-12.35517 h -7.66648 l -2.1912,-2.1912 -5.00759,5.00718 z"
           id="path837-3-5"
           inkscape:connector-curvature="0"
           sodipodi:nodetypes="ccccccccccc" />
        <path
           style="opacity:1;fill:#de8787;fill-opacity:1;stroke:none;stroke-width:0.5;stroke-linejoin:round;stroke-miterlimit:4;stroke-dasharray:none;stroke-dashoffset:0;stroke-opacity:0.39215686"
           d="m 150.94487,20.745645 2.04865,22.64142 4.10132,-4.09984 2.33997,2.34034 h 7.05751 c 0.38869,-1.41074 0.58884,-2.48959 0.59521,-3.95288 -0.008,-8.97928 -7.1664,-16.69571 -16.14266,-16.92904 z"
           id="path837-36-6"
           inkscape:connector-curvature="0"
           sodipodi:nodetypes="ccccccc" />
      </g>
      <circle
         r="2.5759561"
         cy="16.878336"
         cx="149.27606"
         id="circle1353"
         style="opacity:1;fill:#ffffff;fill-opacity:0.98701298;stroke:#ffffff;stroke-width:0.85182911;stroke-linejoin:round;stroke-miterlimit:4;stroke-dasharray:none;stroke-dashoffset:0;stroke-opacity:1" />
      <circle
         style="opacity:1;fill:#2d5ba1;fill-opacity:1;stroke:#2d5ba1;stroke-width:0.85182911;stroke-linejoin:round;stroke-miterlimit:4;stroke-dasharray:none;stroke-dashoffset:0;stroke-opacity:1"
         id="circle1343"
         cx="149.45975"
         cy="16.878336"
         r="2.5759561" />
    </g>
  </g>
</svg>
