<?xml version="1.0" encoding="UTF-8" standalone="no"?>
<svg
   xmlns:dc="http://purl.org/dc/elements/1.1/"
   xmlns:cc="http://creativecommons.org/ns#"
   xmlns:rdf="http://www.w3.org/1999/02/22-rdf-syntax-ns#"
   xmlns:svg="http://www.w3.org/2000/svg"
   xmlns="http://www.w3.org/2000/svg"
   xmlns:sodipodi="http://sodipodi.sourceforge.net/DTD/sodipodi-0.dtd"
   xmlns:inkscape="http://www.inkscape.org/namespaces/inkscape"
   aria-hidden="true"
   focusable="false"
   data-prefix="fas"
   data-icon="forward-fast"
   class="svg-inline--fa fa-forward-fast"
   role="img"
   viewBox="0 0 512 512"
   version="1.1"
   id="svg4"
   sodipodi:docname="forward-fast-solid.svg"
   inkscape:export-filename="C:\Users\au646069\github\systole\source\images\forward-fast-solid.png"
   inkscape:export-xdpi="63.75"
   inkscape:export-ydpi="63.75"
   inkscape:version="1.0.1 (3bc2e813f5, 2020-09-07)">
  <metadata
     id="metadata10">
    <rdf:RDF>
      <cc:Work
         rdf:about="">
        <dc:format>image/svg+xml</dc:format>
        <dc:type
           rdf:resource="http://purl.org/dc/dcmitype/StillImage" />
      </cc:Work>
    </rdf:RDF>
  </metadata>
  <defs
     id="defs8" />
  <sodipodi:namedview
     pagecolor="#ffffff"
     bordercolor="#666666"
     borderopacity="1"
     objecttolerance="10"
     gridtolerance="10"
     guidetolerance="10"
     inkscape:pageopacity="0"
     inkscape:pageshadow="2"
     inkscape:window-width="3200"
     inkscape:window-height="1721"
     id="namedview6"
     showgrid="false"
     inkscape:zoom="1.0019531"
     inkscape:cx="-71.475279"
     inkscape:cy="241.30956"
     inkscape:window-x="2391"
     inkscape:window-y="733"
     inkscape:window-maximized="1"
     inkscape:current-layer="svg4"
     inkscape:document-rotation="0" />
  <path
     fill="currentColor"
     d="M 508.00136,98.544017 V 413.44727 c 0,17.394 -14.10618,30.61422 -30.61425,30.61422 -18.30948,0.0689 -32.38612,-13.22022 -32.38612,-31.43125 V 283.67643 l -168.82122,154.0555 c -20.27823,16.8329 -51.67995,2.65782 -51.67995,-25.10169 V 283.67643 L 55.678601,437.73193 C 35.380676,454.56483 3.9986374,440.38975 3.9986374,412.63024 V 98.544017 c 0,-26.942474 31.3820386,-41.088032 51.6799636,-24.23544 L 224.49982,227.27141 V 98.544017 c 0,-26.942474 31.38204,-41.088032 51.67995,-24.23544 L 445.00099,227.27141 V 98.544017 c 0,-17.393997 14.10618,-30.614222 30.61426,-30.614222 18.30947,-0.885952 32.38611,13.220225 32.38611,30.614222 z"
     id="path2"
     style="fill:#de8787;fill-opacity:1;stroke-width:0.98438" />
</svg>
