<?xml version="1.0" encoding="UTF-8" standalone="no"?>
<svg
   xmlns:dc="http://purl.org/dc/elements/1.1/"
   xmlns:cc="http://creativecommons.org/ns#"
   xmlns:rdf="http://www.w3.org/1999/02/22-rdf-syntax-ns#"
   xmlns:svg="http://www.w3.org/2000/svg"
   xmlns="http://www.w3.org/2000/svg"
   xmlns:sodipodi="http://sodipodi.sourceforge.net/DTD/sodipodi-0.dtd"
   xmlns:inkscape="http://www.inkscape.org/namespaces/inkscape"
   width="340"
   height="340"
   viewBox="0 0 89.958325 89.958328"
   version="1.1"
   id="svg8"
   inkscape:version="1.0.1 (3bc2e813f5, 2020-09-07)"
   sodipodi:docname="tutorials.svg"
   inkscape:export-filename="C:\Users\au646069\github\systole\source\images\tutorials.png"
   inkscape:export-xdpi="96"
   inkscape:export-ydpi="96">
  <defs
     id="defs2">
    <inkscape:path-effect
       effect="bspline"
       id="path-effect1016"
       is_visible="true"
       lpeversion="1"
       weight="33.333333"
       steps="2"
       helper_size="0"
       apply_no_weight="true"
       apply_with_weight="true"
       only_selected="false" />
    <inkscape:path-effect
       effect="bspline"
       id="path-effect1012"
       is_visible="true"
       lpeversion="1"
       weight="33.333333"
       steps="2"
       helper_size="0"
       apply_no_weight="true"
       apply_with_weight="true"
       only_selected="false" />
    <inkscape:path-effect
       effect="spiro"
       id="path-effect1008"
       is_visible="true"
       lpeversion="1" />
  </defs>
  <sodipodi:namedview
     id="base"
     pagecolor="#ffffff"
     bordercolor="#666666"
     borderopacity="1.0"
     inkscape:pageopacity="0.0"
     inkscape:pageshadow="2"
     inkscape:zoom="1.4"
     inkscape:cx="501.36586"
     inkscape:cy="93.290052"
     inkscape:document-units="mm"
     inkscape:current-layer="layer1"
     showgrid="false"
     fit-margin-top="0"
     fit-margin-left="0"
     fit-margin-right="0"
     fit-margin-bottom="0"
     inkscape:window-width="2560"
     inkscape:window-height="1361"
     inkscape:window-x="-9"
     inkscape:window-y="-9"
     inkscape:window-maximized="1"
     showguides="true"
     inkscape:guide-bbox="true"
     inkscape:document-rotation="0"
     units="px">
    <inkscape:grid
       type="xygrid"
       id="grid823"
       originx="-157.62675"
       originy="-6.1484985" />
  </sodipodi:namedview>
  <metadata
     id="metadata5">
    <rdf:RDF>
      <cc:Work
         rdf:about="">
        <dc:format>image/svg+xml</dc:format>
        <dc:type
           rdf:resource="http://purl.org/dc/dcmitype/StillImage" />
        <dc:title></dc:title>
      </cc:Work>
    </rdf:RDF>
  </metadata>
  <g
     inkscape:label="Layer 1"
     inkscape:groupmode="layer"
     id="layer1"
     transform="translate(-169.12945,-15.973383)">
    <g
       id="g899"
       transform="translate(5.1127981,2.0458286)">
      <g
         id="g1000"
         transform="matrix(3.1002246,0,0,3.1002246,-359.66178,-48.630481)">
        <g
           id="g850"
           transform="matrix(0.30599653,0,0,0.30599653,131.45532,24.520202)">
          <circle
             r="14.724678"
             cy="38.888191"
             cx="149.5289"
             id="path1218-5-0"
             style="opacity:1;fill:#ffffff;fill-opacity:1;stroke:#ffffff;stroke-width:4.86958;stroke-linejoin:round;stroke-miterlimit:4;stroke-dasharray:none;stroke-dashoffset:0;stroke-opacity:1" />
          <path
             sodipodi:nodetypes="csccccc"
             inkscape:connector-curvature="0"
             id="path837-0"
             d="m 148.11363,20.742515 c -8.97897,0.23299 -16.14038,7.57613 -16.14339,16.55813 -5.8e-4,1.46265 0.19701,2.91866 0.58085,4.33004 h 7.07039 l 2.34146,-2.34034 4.09985,4.09984 z"
             style="opacity:1;fill:#de8787;fill-opacity:1;stroke:none;stroke-width:0.5;stroke-linejoin:round;stroke-miterlimit:4;stroke-dasharray:none;stroke-dashoffset:0;stroke-opacity:0.392157" />
          <path
             sodipodi:nodetypes="ccccccccccc"
             inkscape:connector-curvature="0"
             id="path837-3-5"
             d="m 149.52195,23.985835 -2.0436,22.57752 -5.00759,-5.00718 -2.19278,2.1912 h -7.65031 c 2.34837,7.35195 9.17639,12.34544 16.89428,12.35517 7.72329,-0.003 14.55887,-4.99809 16.90888,-12.35517 h -7.66648 l -2.1912,-2.1912 -5.00759,5.00718 z"
             style="opacity:1;fill:#2d5ba1;fill-opacity:1;stroke:none;stroke-width:0.5;stroke-linejoin:round;stroke-miterlimit:4;stroke-dasharray:none;stroke-dashoffset:0;stroke-opacity:1" />
          <path
             sodipodi:nodetypes="ccccccc"
             inkscape:connector-curvature="0"
             id="path837-36-6"
             d="m 150.94487,20.745645 2.04865,22.64142 4.10132,-4.09984 2.33997,2.34034 h 7.05751 c 0.38869,-1.41074 0.58884,-2.48959 0.59521,-3.95288 -0.008,-8.97928 -7.1664,-16.69571 -16.14266,-16.92904 z"
             style="opacity:1;fill:#de8787;fill-opacity:1;stroke:none;stroke-width:0.5;stroke-linejoin:round;stroke-miterlimit:4;stroke-dasharray:none;stroke-dashoffset:0;stroke-opacity:0.392157" />
        </g>
        <circle
           style="opacity:1;fill:#ffffff;fill-opacity:0.987013;stroke:#ffffff;stroke-width:0.260657;stroke-linejoin:round;stroke-miterlimit:4;stroke-dasharray:none;stroke-dashoffset:0;stroke-opacity:1"
           id="circle1353"
           cx="177.15443"
           cy="29.684912"
           r="0.78823358" />
        <circle
           r="0.78823358"
           cy="29.684912"
           cx="177.21065"
           id="circle1343"
           style="opacity:1;fill:#2d5ba1;fill-opacity:1;stroke:#2d5ba1;stroke-width:0.260657;stroke-linejoin:round;stroke-miterlimit:4;stroke-dasharray:none;stroke-dashoffset:0;stroke-opacity:1" />
      </g>
      <g
         id="g960"
         transform="matrix(0.17968549,0,0,0.17968549,162.99606,15.973395)"
         style="stroke-width:0;stroke-miterlimit:4;stroke-dasharray:none">
        <g
           id="g892"
           style="stroke-width:0;stroke-miterlimit:4;stroke-dasharray:none">
          <g
             id="g890"
             style="stroke-width:0;stroke-miterlimit:4;stroke-dasharray:none">
            <g
               id="g888"
               style="stroke-width:0;stroke-miterlimit:4;stroke-dasharray:none">
              <path
                 d="m 298.677,145.071 c 1.297,0 2.628,-0.299 3.866,-0.93 0.503,-0.256 50.731,-25.771 75.503,-33.596 4.489,-1.425 6.98,-6.221 5.555,-10.709 -1.417,-4.489 -6.178,-6.989 -10.709,-5.572 -26.095,8.252 -75.981,33.596 -78.097,34.671 -4.198,2.133 -5.871,7.27 -3.738,11.477 1.51,2.952 4.514,4.659 7.62,4.659 z"
                 id="path868"
                 style="fill:#4d4d4d;stroke-width:0;stroke-miterlimit:4;stroke-dasharray:none" />
              <path
                 d="m 264.536,467.92376 c 12.442,-4.352 44.851,-14.498 76.8,-14.498 74.334,0 124.809,23.83924 125.312,24.00924 2.568,0.853 5.436,0.427 7.68,-1.178 2.227,-1.604 3.541,-4.181 3.541,-6.921 V 93.871 c 0,-4.002 -2.773,-7.467 -6.682,-8.329 0,0 -6.69,-1.493 -18.125,-3.593 -4.617,-0.853 -9.079,2.219 -9.933,6.844 -0.853,4.642 4.3062,5.128514 8.9402,5.981514 4.361,0.802 13.36995,2.674555 16.18595,3.238555 L 469.6058,469.6464 c -19.337,-5.069 -71.0798,-26.76613 -128.2708,-26.76613 -37.18,0 -74.16782,11.27935 -85.46682,15.41835 -10.044,-4.437 -42.26829,-16.81582 -78.99629,-16.81582 -58.778,0 -112.32004,21.26464 -133.12404,26.18864 L 43.282028,95.816781 c 17.041,-4.19 78.084902,-17.46711 138.713902,-17.46711 31.113,0 62.45422,12.945754 72.92522,17.323754 l 0.46582,337.201465 c -0.97194,5.80431 4.41598,8.87513 5.00903,9.64211 0.845,-0.503 85.393,-51.004 160.435,-76.015 3.49,-1.169 5.837,-4.42 5.837,-8.098 V 8.537 c 0,-2.799 -1.374,-5.419 -3.678,-7.014 -2.287,-1.596 -5.222,-1.963 -7.859,-0.981 -68.275,25.608 -137.36,68.599 -138.052,69.026 -3.994,2.5 -3.89646,4.800528 -1.39646,8.794528 2.492,3.994 4.46315,4.225842 8.46515,1.725842 0.631,-0.401 70.16146,-44.322363 132.90646,-69.555363 l 0.58228,346.769583 c -58.249,20.241 -129.08117,58.99731 -155.08217,73.79331 L 264.534,93.871 c 0.019,-3.233944 -1.826,-6.187 -4.719,-7.637 -1.468,-0.725 -36.437,-17.963 -80.614,-17.963 -77.107,0 -136.388,16.683 -138.88,17.399 -3.661,1.041 -6.187,4.395 -6.187,8.201 v 375.467 c 0,2.671 1.263,5.197 3.388,6.81 1.502,1.135 3.311,1.724 5.146,1.724 0.785,0 1.57,-0.111 2.338,-0.333 0.589,-0.162 59.597,-24.11224 134.195,-24.11224 31.198,0 57.856,9.711 68.267,14.071 z"
                 id="path870"
                 sodipodi:nodetypes="csccssccccccscsccsccccssccccccccscscsscscscc"
                 style="stroke-width:0;stroke-miterlimit:4;stroke-dasharray:none" />
              <path
                 d="m 291.057,191.611 c 1.51,2.953 4.514,4.659 7.62,4.659 1.297,0 2.628,-0.299 3.866,-0.93 0.503,-0.256 50.731,-25.771 75.503,-33.596 4.489,-1.425 6.98,-6.221 5.555,-10.709 -1.417,-4.489 -6.178,-6.989 -10.709,-5.572 -26.095,8.252 -75.981,33.596 -78.097,34.671 -4.199,2.133 -5.871,7.271 -3.738,11.477 z"
                 id="path872"
                 style="fill:#808080;stroke-width:0;stroke-miterlimit:4;stroke-dasharray:none" />
              <path
                 d="m 291.057,294.011 c 1.51,2.953 4.514,4.659 7.62,4.659 1.297,0 2.628,-0.299 3.866,-0.93 0.503,-0.256 50.731,-25.771 75.503,-33.596 4.489,-1.425 6.98,-6.221 5.555,-10.709 -1.417,-4.489 -6.178,-6.989 -10.709,-5.572 -26.095,8.252 -75.981,33.596 -78.097,34.671 -4.199,2.133 -5.871,7.271 -3.738,11.477 z"
                 id="path874"
                 style="fill:#4d4d4d;stroke-width:0;stroke-miterlimit:4;stroke-dasharray:none" />
              <path
                 d="m 291.057,345.211 c 1.51,2.953 4.514,4.659 7.62,4.659 1.297,0 2.628,-0.299 3.866,-0.93 0.503,-0.256 50.731,-25.771 75.503,-33.596 4.489,-1.425 6.98,-6.221 5.555,-10.709 -1.417,-4.488 -6.178,-6.989 -10.709,-5.572 -26.095,8.252 -75.981,33.596 -78.097,34.671 -4.199,2.133 -5.871,7.271 -3.738,11.477 z"
                 id="path880"
                 style="fill:#b3b3b3;stroke-width:0;stroke-miterlimit:4;stroke-dasharray:none" />
            </g>
          </g>
        </g>
        <g
           id="g894"
           style="stroke-width:0;stroke-miterlimit:4;stroke-dasharray:none" />
        <g
           id="g896"
           style="stroke-width:0;stroke-miterlimit:4;stroke-dasharray:none" />
        <g
           id="g898"
           style="stroke-width:0;stroke-miterlimit:4;stroke-dasharray:none" />
        <g
           id="g900"
           style="stroke-width:0;stroke-miterlimit:4;stroke-dasharray:none" />
        <g
           id="g902"
           style="stroke-width:0;stroke-miterlimit:4;stroke-dasharray:none" />
        <g
           id="g904"
           style="stroke-width:0;stroke-miterlimit:4;stroke-dasharray:none" />
        <g
           id="g906"
           style="stroke-width:0;stroke-miterlimit:4;stroke-dasharray:none" />
        <g
           id="g908"
           style="stroke-width:0;stroke-miterlimit:4;stroke-dasharray:none" />
        <g
           id="g910"
           style="stroke-width:0;stroke-miterlimit:4;stroke-dasharray:none" />
        <g
           id="g912"
           style="stroke-width:0;stroke-miterlimit:4;stroke-dasharray:none" />
        <g
           id="g914"
           style="stroke-width:0;stroke-miterlimit:4;stroke-dasharray:none" />
        <g
           id="g916"
           style="stroke-width:0;stroke-miterlimit:4;stroke-dasharray:none" />
        <g
           id="g918"
           style="stroke-width:0;stroke-miterlimit:4;stroke-dasharray:none" />
        <g
           id="g920"
           style="stroke-width:0;stroke-miterlimit:4;stroke-dasharray:none" />
        <g
           id="g922"
           style="stroke-width:0;stroke-miterlimit:4;stroke-dasharray:none" />
      </g>
    </g>
  </g>
</svg>
